<svg width="1609" height="872" viewBox="0 0 1609 872" fill="none" xmlns="http://www.w3.org/2000/svg">
<path d="M69.0571 6.08267L1531.38 6.08267" stroke="url(#paint0_linear_30_2)" stroke-width="11" stroke-linecap="round" stroke-linejoin="bevel"/>
<path d="M69 865.018H1531" stroke="url(#paint1_linear_30_2)" stroke-width="11" stroke-linecap="round" stroke-linejoin="bevel"/>
<path d="M6.24609 78.2844V806.672" stroke="url(#paint2_linear_30_2)" stroke-width="11" stroke-linecap="round" stroke-linejoin="bevel"/>
<path d="M1598.9 801.124L1602.91 72.75" stroke="url(#paint3_linear_30_2)" stroke-width="11" stroke-linecap="round" stroke-linejoin="bevel"/>
<path d="M66.1914 12.2513C65.9717 14.261 65.3694 19.7724 64.5561 26.823C64.0659 31.0727 63.4216 32.8474 62.9134 34.7443C62.3612 36.8053 61.3621 39.8705 59.77 43.4C58.955 45.2067 57.8401 46.8863 56.1244 49.1494C54.4086 51.4126 52.0527 54.1679 49.5744 56.5834C47.0961 58.9989 44.5668 60.991 41.808 62.8036C39.0492 64.6162 36.1376 66.1889 33.1747 67.4603C27.385 69.9447 23.4909 70.6901 21.9565 70.9135C18.2945 71.6141 13.9827 72.2779 11.8192 72.7029C10.9722 72.8331 10.6344 72.7899 10.0003 72.9895" stroke="url(#paint4_linear_30_2)" stroke-width="11" stroke-linecap="round" stroke-linejoin="bevel"/>
<path d="M16.2503 803.35C18.1004 803.649 23.1741 804.466 29.6636 805.559C33.5751 806.217 35.1952 806.967 36.9325 807.574C38.8199 808.233 41.6217 809.406 44.8345 811.234C46.4791 812.17 47.9972 813.427 50.0363 815.35C52.0755 817.274 54.55 819.905 56.7068 822.658C58.8637 825.411 60.6278 828.206 62.2192 831.244C63.8106 834.282 65.1758 837.478 66.261 840.721C68.3816 847.056 68.9528 851.29 69.1128 852.956C69.6496 856.937 70.1328 861.62 70.4601 863.972C70.5549 864.892 70.5048 865.256 70.67 865.948" stroke="url(#paint5_linear_30_2)" stroke-width="11" stroke-linecap="round" stroke-linejoin="bevel"/>
<path d="M1596.29 72.8771C1594.44 72.6487 1589.34 72.0223 1582.82 71.1746C1578.89 70.6637 1577.24 69.9749 1575.49 69.4337C1573.58 68.8458 1570.74 67.7789 1567.47 66.0726C1565.8 65.1991 1564.24 64.0007 1562.14 62.1548C1560.04 60.3089 1557.49 57.7728 1555.24 55.1026C1553 52.4325 1551.15 49.7052 1549.46 46.7288C1547.77 43.7525 1546.3 40.6097 1545.11 37.41C1542.79 31.1577 1542.08 26.9482 1541.87 25.2892C1541.21 21.3305 1540.57 16.6687 1540.17 14.3301C1540.05 13.4143 1540.08 13.0487 1539.9 12.3636" stroke="url(#paint6_linear_30_2)" stroke-width="11" stroke-linecap="round" stroke-linejoin="bevel"/>
<path d="M1535.44 863.986C1535.72 861.985 1536.5 856.499 1537.53 849.482C1538.15 845.252 1538.85 843.502 1539.41 841.624C1540.03 839.584 1541.12 836.557 1542.82 833.087C1543.69 831.31 1544.86 829.672 1546.64 827.472C1548.43 825.272 1550.87 822.604 1553.42 820.279C1555.97 817.955 1558.56 816.055 1561.37 814.343C1564.19 812.631 1567.14 811.165 1570.14 810.001C1576.01 807.727 1579.92 807.123 1581.46 806.955C1585.15 806.387 1589.47 805.88 1591.65 805.533C1592.5 805.434 1592.84 805.489 1593.48 805.312" stroke="url(#paint7_linear_30_2)" stroke-width="11" stroke-linecap="round" stroke-linejoin="bevel"/>
<path d="M91 29.8015H1513" stroke="#513D1F" stroke-width="5" stroke-linecap="round" stroke-linejoin="bevel"/>
<path d="M91 837.971H1512" stroke="#513D1F" stroke-width="5" stroke-linecap="round" stroke-linejoin="bevel"/>
<path d="M30 97.9604V782.795" stroke="#513D1F" stroke-width="5" stroke-linecap="round" stroke-linejoin="bevel"/>
<path d="M1578.1 777.788L1582 92.594" stroke="#513D1F" stroke-width="5" stroke-linecap="round" stroke-linejoin="bevel"/>
<path d="M88.5052 35.6822C88.2918 37.5727 87.7064 42.7574 86.916 49.39C86.4395 53.3878 85.8134 55.0573 85.3195 56.8418C84.7828 58.7805 83.8118 61.6641 82.2645 64.9843C81.4724 66.6839 80.3889 68.2639 78.7214 70.3929C77.0539 72.5219 74.7643 75.1139 72.3557 77.3862C69.9471 79.6584 67.4889 81.5324 64.8077 83.2376C62.1265 84.9427 59.2968 86.4222 56.4172 87.6183C50.7904 89.9554 47.0058 90.6566 45.5146 90.8667C41.9556 91.5258 37.7651 92.1503 35.6624 92.55C34.8392 92.6725 34.511 92.6319 33.8947 92.8197" stroke="#513D1F" stroke-width="5" stroke-linecap="round" stroke-linejoin="bevel"/>
<path d="M39.9692 779.882C41.7672 780.163 46.6983 780.932 53.0052 781.959C56.8067 782.579 58.3813 783.284 60.0696 783.855C61.9039 784.476 64.627 785.579 67.7494 787.299C69.3478 788.179 70.8231 789.361 72.8049 791.171C74.7867 792.98 77.1916 795.455 79.2878 798.045C81.384 800.635 83.0985 803.264 84.6452 806.122C86.1918 808.98 87.5185 811.987 88.5733 815.037C90.6342 820.997 91.1893 824.98 91.3449 826.547C91.8665 830.292 92.3361 834.697 92.6543 836.91C92.7464 837.776 92.6977 838.118 92.8583 838.769" stroke="#513D1F" stroke-width="5" stroke-linecap="round" stroke-linejoin="bevel"/>
<path d="M1575.57 92.7139C1573.76 92.499 1568.81 91.9098 1562.47 91.1124C1558.65 90.6318 1557.06 89.9838 1555.35 89.4747C1553.5 88.9216 1550.74 87.918 1547.56 86.3128C1545.93 85.4912 1544.42 84.3638 1542.38 82.6273C1540.34 80.8909 1537.85 78.5051 1535.67 75.9932C1533.49 73.4813 1531.69 70.9157 1530.05 68.1158C1528.41 65.3159 1526.98 62.3595 1525.83 59.3494C1523.57 53.4678 1522.88 49.5078 1522.68 47.9472C1522.03 44.2232 1521.42 39.8378 1521.02 37.6378C1520.9 36.7763 1520.94 36.4323 1520.76 35.7879" stroke="#513D1F" stroke-width="5" stroke-linecap="round" stroke-linejoin="bevel"/>
<path d="M1516.43 836.923C1516.7 835.041 1517.45 829.88 1518.46 823.279C1519.06 819.3 1519.74 817.653 1520.29 815.887C1520.89 813.968 1521.95 811.12 1523.6 807.856C1524.45 806.185 1525.58 804.644 1527.32 802.574C1529.05 800.505 1531.42 797.994 1533.9 795.807C1536.38 793.621 1538.9 791.834 1541.63 790.223C1544.36 788.613 1547.24 787.233 1550.16 786.139C1555.85 784 1559.66 783.431 1561.16 783.273C1564.73 782.739 1568.94 782.262 1571.06 781.936C1571.88 781.842 1572.21 781.894 1572.83 781.728" stroke="#513D1F" stroke-width="5" stroke-linecap="round" stroke-linejoin="bevel"/>
<defs>
<linearGradient id="paint0_linear_30_2" x1="800.218" y1="6.08267" x2="800.218" y2="7.08267" gradientUnits="userSpaceOnUse">
<stop stop-color="#BA881A" stop-opacity="0.62"/>
<stop offset="1" stop-color="#6B4E23"/>
</linearGradient>
<linearGradient id="paint1_linear_30_2" x1="800" y1="865.018" x2="800" y2="866.018" gradientUnits="userSpaceOnUse">
<stop stop-color="#BA881A" stop-opacity="0.62"/>
<stop offset="1" stop-color="#6B4E23"/>
</linearGradient>
<linearGradient id="paint2_linear_30_2" x1="6.74609" y1="78.2844" x2="6.74609" y2="806.672" gradientUnits="userSpaceOnUse">
<stop stop-color="#BA881A" stop-opacity="0.62"/>
<stop offset="1" stop-color="#6B4E23"/>
</linearGradient>
<linearGradient id="paint3_linear_30_2" x1="1598.4" y1="801.121" x2="1603.09" y2="72.7512" gradientUnits="userSpaceOnUse">
<stop stop-color="#BA881A" stop-opacity="0.62"/>
<stop offset="1" stop-color="#6B4E23"/>
</linearGradient>
<linearGradient id="paint4_linear_30_2" x1="41.7563" y1="9.12563" x2="33.2074" y2="75.9581" gradientUnits="userSpaceOnUse">
<stop stop-color="#BA881A" stop-opacity="0.62"/>
<stop offset="1" stop-color="#6B4E23"/>
</linearGradient>
<linearGradient id="paint5_linear_30_2" x1="12.6251" y1="829.68" x2="74.4908" y2="838.198" gradientUnits="userSpaceOnUse">
<stop stop-color="#BA881A" stop-opacity="0.62"/>
<stop offset="1" stop-color="#6B4E23"/>
</linearGradient>
<linearGradient id="paint6_linear_30_2" x1="1599.07" y1="46.4271" x2="1537" y2="39.9104" gradientUnits="userSpaceOnUse">
<stop stop-color="#BA881A" stop-opacity="0.62"/>
<stop offset="1" stop-color="#6B4E23"/>
</linearGradient>
<linearGradient id="paint7_linear_30_2" x1="1559.77" y1="867.993" x2="1570.71" y2="801.562" gradientUnits="userSpaceOnUse">
<stop stop-color="#BA881A" stop-opacity="0.62"/>
<stop offset="1" stop-color="#6B4E23"/>
</linearGradient>
</defs>
</svg>
